<svg viewBox="0 0 3790 1190" xmlns="http://www.w3.org/2000/svg">
<rect fill="white" height="100%" width="100%" x="0" y="0"/>
<rect fill="white" height="990" stroke="black" stroke-width="1" width="3590" x="100" y="100"/>
<text dominant-baseline="middle" font-family="Arial" font-size="20" text-anchor="middle" x="50" y="175">
0
</text>
<text dominant-baseline="middle" font-family="Arial" font-size="20" text-anchor="middle" x="50" y="265">
1
</text>
<text dominant-baseline="middle" font-family="Arial" font-size="20" text-anchor="middle" x="50" y="355">
2
</text>
<text dominant-baseline="middle" font-family="Arial" font-size="20" text-anchor="middle" x="50" y="445">
3
</text>
<text dominant-baseline="middle" font-family="Arial" font-size="20" text-anchor="middle" x="50" y="535">
4
</text>
<text dominant-baseline="middle" font-family="Arial" font-size="20" text-anchor="middle" x="50" y="625">
5
</text>
<text dominant-baseline="middle" font-family="Arial" font-size="20" text-anchor="middle" x="50" y="715">
6
</text>
<text dominant-baseline="middle" font-family="Arial" font-size="20" text-anchor="middle" x="50" y="805">
7
</text>
<text dominant-baseline="middle" font-family="Arial" font-size="20" text-anchor="middle" x="50" y="895">
8
</text>
<text dominant-baseline="middle" font-family="Arial" font-size="20" text-anchor="middle" x="50" y="985">
9
</text>
<text dominant-baseline="middle" font-family="Arial" font-size="20" text-anchor="middle" x="3645" y="50">
0
</text>
<text dominant-baseline="middle" font-family="Arial" font-size="20" text-anchor="middle" x="3525" y="50">
1
</text>
<text dominant-baseline="middle" font-family="Arial" font-size="20" text-anchor="middle" x="3405" y="50">
2
</text>
<text dominant-baseline="middle" font-family="Arial" font-size="20" text-anchor="middle" x="3285" y="50">
3
</text>
<text dominant-baseline="middle" font-family="Arial" font-size="20" text-anchor="middle" x="3165" y="50">
4
</text>
<text dominant-baseline="middle" font-family="Arial" font-size="20" text-anchor="middle" x="3045" y="50">
5
</text>
<text dominant-baseline="middle" font-family="Arial" font-size="20" text-anchor="middle" x="2925" y="50">
6
</text>
<text dominant-baseline="middle" font-family="Arial" font-size="20" text-anchor="middle" x="2805" y="50">
7
</text>
<text dominant-baseline="middle" font-family="Arial" font-size="20" text-anchor="middle" x="2685" y="50">
8
</text>
<text dominant-baseline="middle" font-family="Arial" font-size="20" text-anchor="middle" x="2565" y="50">
9
</text>
<text dominant-baseline="middle" font-family="Arial" font-size="20" text-anchor="middle" x="2445" y="50">
10
</text>
<text dominant-baseline="middle" font-family="Arial" font-size="20" text-anchor="middle" x="2325" y="50">
11
</text>
<text dominant-baseline="middle" font-family="Arial" font-size="20" text-anchor="middle" x="2205" y="50">
12
</text>
<text dominant-baseline="middle" font-family="Arial" font-size="20" text-anchor="middle" x="2085" y="50">
13
</text>
<text dominant-baseline="middle" font-family="Arial" font-size="20" text-anchor="middle" x="1965" y="50">
14
</text>
<text dominant-baseline="middle" font-family="Arial" font-size="20" text-anchor="middle" x="1845" y="50">
15
</text>
<text dominant-baseline="middle" font-family="Arial" font-size="20" text-anchor="middle" x="1725" y="50">
16
</text>
<text dominant-baseline="middle" font-family="Arial" font-size="20" text-anchor="middle" x="1605" y="50">
17
</text>
<text dominant-baseline="middle" font-family="Arial" font-size="20" text-anchor="middle" x="1485" y="50">
18
</text>
<text dominant-baseline="middle" font-family="Arial" font-size="20" text-anchor="middle" x="1365" y="50">
19
</text>
<text dominant-baseline="middle" font-family="Arial" font-size="20" text-anchor="middle" x="1245" y="50">
20
</text>
<text dominant-baseline="middle" font-family="Arial" font-size="20" text-anchor="middle" x="1125" y="50">
21
</text>
<text dominant-baseline="middle" font-family="Arial" font-size="20" text-anchor="middle" x="1005" y="50">
22
</text>
<text dominant-baseline="middle" font-family="Arial" font-size="20" text-anchor="middle" x="885" y="50">
23
</text>
<text dominant-baseline="middle" font-family="Arial" font-size="20" text-anchor="middle" x="765" y="50">
24
</text>
<text dominant-baseline="middle" font-family="Arial" font-size="20" text-anchor="middle" x="695" y="50">
25
</text>
<text dominant-baseline="middle" font-family="Arial" font-size="20" text-anchor="middle" x="575" y="50">
26
</text>
<text dominant-baseline="middle" font-family="Arial" font-size="20" text-anchor="middle" x="455" y="50">
27
</text>
<text dominant-baseline="middle" font-family="Arial" font-size="20" text-anchor="middle" x="335" y="50">
28
</text>
<text dominant-baseline="middle" font-family="Arial" font-size="20" text-anchor="middle" x="215" y="50">
29
</text>
<text dominant-baseline="middle" font-family="Arial" font-size="20" text-anchor="middle" x="145" y="50">
30
</text>
<rect fill="#FFC000" height="30" stroke="black" stroke-width="2" width="50" x="3620" y="250"/>
<rect fill="#A9D08E" height="30" stroke="black" stroke-width="2" width="50" x="3500" y="250"/>
<rect fill="#FFC000" height="30" stroke="black" stroke-width="2" width="50" x="3550" y="250"/>
<rect fill="#D9D9D9" height="30" stroke="black" stroke-width="2" width="50" x="3500" y="340"/>
<rect fill="#FFC000" height="30" stroke="black" stroke-width="2" width="50" x="3500" y="970"/>
<rect fill="#E2EFDA" height="30" stroke="black" stroke-width="2" width="50" x="3380" y="250"/>
<rect fill="#FFC000" height="30" stroke="black" stroke-width="2" width="50" x="3430" y="250"/>
<rect fill="#D9D9D9" height="30" stroke="black" stroke-width="2" width="50" x="3380" y="340"/>
<rect fill="#FF99CC" height="30" stroke="black" stroke-width="2" width="50" x="3380" y="970"/>
<rect fill="#A9D08E" height="30" stroke="black" stroke-width="2" width="50" x="3260" y="250"/>
<rect fill="#FFC000" height="30" stroke="black" stroke-width="2" width="50" x="3310" y="250"/>
<rect fill="#D9D9D9" height="30" stroke="black" stroke-width="2" width="50" x="3260" y="340"/>
<rect fill="#DDEBF7" height="30" stroke="black" stroke-width="2" width="50" x="3310" y="340"/>
<rect fill="#D9D9D9" height="30" stroke="black" stroke-width="2" width="50" x="3260" y="430"/>
<rect fill="#FF99CC" height="30" stroke="black" stroke-width="2" width="50" x="3260" y="970"/>
<rect fill="#E2EFDA" height="30" stroke="black" stroke-width="2" width="50" x="3140" y="250"/>
<rect fill="#FFC000" height="30" stroke="black" stroke-width="2" width="50" x="3190" y="250"/>
<rect fill="#D9D9D9" height="30" stroke="black" stroke-width="2" width="50" x="3140" y="520"/>
<rect fill="#FFC000" height="30" stroke="black" stroke-width="2" width="50" x="3140" y="970"/>
<rect fill="#A9D08E" height="30" stroke="black" stroke-width="2" width="50" x="3020" y="250"/>
<rect fill="#FF99CC" height="30" stroke="black" stroke-width="2" width="50" x="3070" y="250"/>
<rect fill="#F8CBAD" height="30" stroke="black" stroke-width="2" width="50" x="3020" y="340"/>
<rect fill="#D9D9D9" height="30" stroke="black" stroke-width="2" width="50" x="3070" y="340"/>
<rect fill="#D9D9D9" height="30" stroke="black" stroke-width="2" width="50" x="3020" y="430"/>
<rect fill="#FFC000" height="30" stroke="black" stroke-width="2" width="50" x="3020" y="970"/>
<rect fill="#E2EFDA" height="30" stroke="black" stroke-width="2" width="50" x="2900" y="250"/>
<rect fill="#FFC000" height="30" stroke="black" stroke-width="2" width="50" x="2950" y="250"/>
<rect fill="#F8CBAD" height="30" stroke="black" stroke-width="2" width="50" x="2900" y="340"/>
<rect fill="#D9D9D9" height="30" stroke="black" stroke-width="2" width="50" x="2900" y="520"/>
<rect fill="#FFC000" height="30" stroke="black" stroke-width="2" width="50" x="2900" y="970"/>
<rect fill="#A9D08E" height="30" stroke="black" stroke-width="2" width="50" x="2780" y="250"/>
<rect fill="#FF99CC" height="30" stroke="black" stroke-width="2" width="50" x="2830" y="250"/>
<rect fill="#D9D9D9" height="30" stroke="black" stroke-width="2" width="50" x="2780" y="340"/>
<rect fill="#D9D9D9" height="30" stroke="black" stroke-width="2" width="50" x="2780" y="430"/>
<rect fill="#F8CBAD" height="30" stroke="black" stroke-width="2" width="50" x="2780" y="520"/>
<rect fill="#FFC000" height="30" stroke="black" stroke-width="2" width="50" x="2780" y="970"/>
<rect fill="#E2EFDA" height="30" stroke="black" stroke-width="2" width="50" x="2660" y="250"/>
<rect fill="#FFC000" height="30" stroke="black" stroke-width="2" width="50" x="2710" y="250"/>
<rect fill="#D9D9D9" height="30" stroke="black" stroke-width="2" width="50" x="2660" y="610"/>
<rect fill="#FFC000" height="30" stroke="black" stroke-width="2" width="50" x="2660" y="970"/>
<rect fill="#A9D08E" height="30" stroke="black" stroke-width="2" width="50" x="2540" y="250"/>
<rect fill="#FF99CC" height="30" stroke="black" stroke-width="2" width="50" x="2590" y="250"/>
<rect fill="#00FFFF" height="30" stroke="black" stroke-width="2" width="50" x="2540" y="520"/>
<rect fill="#FFC000" height="30" stroke="black" stroke-width="2" width="50" x="2540" y="970"/>
<rect fill="#E2EFDA" height="30" stroke="black" stroke-width="2" width="50" x="2420" y="250"/>
<rect fill="#FFC000" height="30" stroke="black" stroke-width="2" width="50" x="2470" y="250"/>
<rect fill="#F8CBAD" height="30" stroke="black" stroke-width="2" width="50" x="2420" y="340"/>
<rect fill="#D9D9D9" height="30" stroke="black" stroke-width="2" width="50" x="2470" y="340"/>
<rect fill="#D9D9D9" height="30" stroke="black" stroke-width="2" width="50" x="2420" y="610"/>
<rect fill="#FFC000" height="30" stroke="black" stroke-width="2" width="50" x="2420" y="970"/>
<rect fill="#A9D08E" height="30" stroke="black" stroke-width="2" width="50" x="2300" y="250"/>
<rect fill="#FF99CC" height="30" stroke="black" stroke-width="2" width="50" x="2350" y="250"/>
<rect fill="#D9D9D9" height="30" stroke="black" stroke-width="2" width="50" x="2300" y="340"/>
<rect fill="#D9D9D9" height="30" stroke="black" stroke-width="2" width="50" x="2300" y="520"/>
<rect fill="#F8CBAD" height="30" stroke="black" stroke-width="2" width="50" x="2300" y="610"/>
<rect fill="#FFC000" height="30" stroke="black" stroke-width="2" width="50" x="2300" y="970"/>
<rect fill="#E2EFDA" height="30" stroke="black" stroke-width="2" width="50" x="2180" y="250"/>
<rect fill="#FFC000" height="30" stroke="black" stroke-width="2" width="50" x="2230" y="250"/>
<rect fill="#D9D9D9" height="30" stroke="black" stroke-width="2" width="50" x="2180" y="610"/>
<rect fill="#FF99CC" height="30" stroke="black" stroke-width="2" width="50" x="2180" y="970"/>
<rect fill="#A9D08E" height="30" stroke="black" stroke-width="2" width="50" x="2060" y="250"/>
<rect fill="#FF99CC" height="30" stroke="black" stroke-width="2" width="50" x="2110" y="250"/>
<rect fill="#00FFFF" height="30" stroke="black" stroke-width="2" width="50" x="2060" y="610"/>
<rect fill="#FFC000" height="30" stroke="black" stroke-width="2" width="50" x="2060" y="970"/>
<rect fill="#E2EFDA" height="30" stroke="black" stroke-width="2" width="50" x="1940" y="250"/>
<rect fill="#FFC000" height="30" stroke="black" stroke-width="2" width="50" x="1990" y="250"/>
<rect fill="#F8CBAD" height="30" stroke="black" stroke-width="2" width="50" x="1940" y="340"/>
<rect fill="#D9D9D9" height="30" stroke="black" stroke-width="2" width="50" x="1990" y="340"/>
<rect fill="#F8CBAD" height="30" stroke="black" stroke-width="2" width="50" x="1940" y="430"/>
<rect fill="#D9D9D9" height="30" stroke="black" stroke-width="2" width="50" x="1940" y="610"/>
<rect fill="#FF99CC" height="30" stroke="black" stroke-width="2" width="50" x="1940" y="970"/>
<rect fill="#A9D08E" height="30" stroke="black" stroke-width="2" width="50" x="1820" y="250"/>
<rect fill="#FF99CC" height="30" stroke="black" stroke-width="2" width="50" x="1870" y="250"/>
<rect fill="#D9D9D9" height="30" stroke="black" stroke-width="2" width="50" x="1820" y="340"/>
<rect fill="#D9D9D9" height="30" stroke="black" stroke-width="2" width="50" x="1820" y="430"/>
<rect fill="#D9D9D9" height="30" stroke="black" stroke-width="2" width="50" x="1820" y="520"/>
<rect fill="#DDEBF7" height="30" stroke="black" stroke-width="2" width="50" x="1820" y="610"/>
<rect fill="#F8CBAD" height="30" stroke="black" stroke-width="2" width="50" x="1820" y="700"/>
<rect fill="#FF99CC" height="30" stroke="black" stroke-width="2" width="50" x="1820" y="970"/>
<rect fill="#E2EFDA" height="30" stroke="black" stroke-width="2" width="50" x="1700" y="250"/>
<rect fill="#FFC000" height="30" stroke="black" stroke-width="2" width="50" x="1750" y="250"/>
<rect fill="#D9D9D9" height="30" stroke="black" stroke-width="2" width="50" x="1700" y="700"/>
<rect fill="#FF99CC" height="30" stroke="black" stroke-width="2" width="50" x="1700" y="970"/>
<rect fill="#A9D08E" height="30" stroke="black" stroke-width="2" width="50" x="1580" y="250"/>
<rect fill="#FF99CC" height="30" stroke="black" stroke-width="2" width="50" x="1630" y="250"/>
<rect fill="#00FFFF" height="30" stroke="black" stroke-width="2" width="50" x="1580" y="700"/>
<rect fill="#FFC000" height="30" stroke="black" stroke-width="2" width="50" x="1580" y="970"/>
<rect fill="#E2EFDA" height="30" stroke="black" stroke-width="2" width="50" x="1460" y="250"/>
<rect fill="#FFC000" height="30" stroke="black" stroke-width="2" width="50" x="1510" y="250"/>
<rect fill="#F8CBAD" height="30" stroke="black" stroke-width="2" width="50" x="1460" y="340"/>
<rect fill="#D9D9D9" height="30" stroke="black" stroke-width="2" width="50" x="1510" y="340"/>
<rect fill="#DDEBF7" height="30" stroke="black" stroke-width="2" width="50" x="1460" y="430"/>
<rect fill="#D9D9D9" height="30" stroke="black" stroke-width="2" width="50" x="1460" y="700"/>
<rect fill="#FF99CC" height="30" stroke="black" stroke-width="2" width="50" x="1460" y="970"/>
<rect fill="#A9D08E" height="30" stroke="black" stroke-width="2" width="50" x="1340" y="250"/>
<rect fill="#FF99CC" height="30" stroke="black" stroke-width="2" width="50" x="1390" y="250"/>
<rect fill="#D9D9D9" height="30" stroke="black" stroke-width="2" width="50" x="1340" y="340"/>
<rect fill="#D9D9D9" height="30" stroke="black" stroke-width="2" width="50" x="1340" y="610"/>
<rect fill="#DDEBF7" height="30" stroke="black" stroke-width="2" width="50" x="1340" y="700"/>
<rect fill="#F8CBAD" height="30" stroke="black" stroke-width="2" width="50" x="1340" y="790"/>
<rect fill="#FFC000" height="30" stroke="black" stroke-width="2" width="50" x="1340" y="970"/>
<rect fill="#E2EFDA" height="30" stroke="black" stroke-width="2" width="50" x="1220" y="250"/>
<rect fill="#FFC000" height="30" stroke="black" stroke-width="2" width="50" x="1270" y="250"/>
<rect fill="#DDEBF7" height="30" stroke="black" stroke-width="2" width="50" x="1220" y="340"/>
<rect fill="#DDEBF7" height="30" stroke="black" stroke-width="2" width="50" x="1270" y="340"/>
<rect fill="#D9D9D9" height="30" stroke="black" stroke-width="2" width="50" x="1220" y="790"/>
<rect fill="#FFC000" height="30" stroke="black" stroke-width="2" width="50" x="1220" y="970"/>
<rect fill="#A9D08E" height="30" stroke="black" stroke-width="2" width="50" x="1100" y="250"/>
<rect fill="#FF99CC" height="30" stroke="black" stroke-width="2" width="50" x="1150" y="250"/>
<rect fill="#F8CBAD" height="30" stroke="black" stroke-width="2" width="50" x="1100" y="340"/>
<rect fill="#F8CBAD" height="30" stroke="black" stroke-width="2" width="50" x="1150" y="340"/>
<rect fill="#D9D9D9" height="30" stroke="black" stroke-width="2" width="50" x="1100" y="790"/>
<rect fill="#FF99CC" height="30" stroke="black" stroke-width="2" width="50" x="1100" y="970"/>
<rect fill="#E2EFDA" height="30" stroke="black" stroke-width="2" width="50" x="980" y="250"/>
<rect fill="#FFC000" height="30" stroke="black" stroke-width="2" width="50" x="1030" y="250"/>
<rect fill="#F8CBAD" height="30" stroke="black" stroke-width="2" width="50" x="980" y="340"/>
<rect fill="#D9D9D9" height="30" stroke="black" stroke-width="2" width="50" x="1030" y="340"/>
<rect fill="#D9D9D9" height="30" stroke="black" stroke-width="2" width="50" x="980" y="790"/>
<rect fill="#FFC000" height="30" stroke="black" stroke-width="2" width="50" x="980" y="970"/>
<rect fill="#FFC000" height="30" stroke="black" stroke-width="2" width="50" x="860" y="250"/>
<rect fill="#D9D9D9" height="30" stroke="black" stroke-width="2" width="50" x="860" y="430"/>
<rect fill="#F8CBAD" height="30" stroke="black" stroke-width="2" width="50" x="910" y="430"/>
<rect fill="#D9D9D9" height="30" stroke="black" stroke-width="2" width="50" x="860" y="790"/>
<rect fill="#FFC000" height="30" stroke="black" stroke-width="2" width="50" x="860" y="970"/>
<rect fill="#FFC000" height="30" stroke="black" stroke-width="2" width="50" x="740" y="250"/>
<rect fill="#F8CBAD" height="30" stroke="black" stroke-width="2" width="50" x="740" y="340"/>
<rect fill="#D9D9D9" height="30" stroke="black" stroke-width="2" width="50" x="790" y="340"/>
<rect fill="#F8CBAD" height="30" stroke="black" stroke-width="2" width="50" x="740" y="430"/>
<rect fill="#D9D9D9" height="30" stroke="black" stroke-width="2" width="50" x="790" y="430"/>
<rect fill="#D9D9D9" height="30" stroke="black" stroke-width="2" width="50" x="740" y="700"/>
<rect fill="#DDEBF7" height="30" stroke="black" stroke-width="2" width="50" x="740" y="790"/>
<rect fill="#FFC000" height="30" stroke="black" stroke-width="2" width="50" x="740" y="970"/>
<rect fill="#FFC000" height="30" stroke="black" stroke-width="2" width="50" x="670" y="250"/>
<rect fill="#D9D9D9" height="30" stroke="black" stroke-width="2" width="50" x="670" y="880"/>
<rect fill="#FF99CC" height="30" stroke="black" stroke-width="2" width="50" x="670" y="970"/>
<rect fill="#FFC000" height="30" stroke="black" stroke-width="2" width="50" x="550" y="250"/>
<rect fill="#F8CBAD" height="30" stroke="black" stroke-width="2" width="50" x="550" y="340"/>
<rect fill="#D9D9D9" height="30" stroke="black" stroke-width="2" width="50" x="600" y="340"/>
<rect fill="#D9D9D9" height="30" stroke="black" stroke-width="2" width="50" x="550" y="790"/>
<rect fill="#FF99CC" height="30" stroke="black" stroke-width="2" width="50" x="550" y="970"/>
<rect fill="#FFC000" height="30" stroke="black" stroke-width="2" width="50" x="430" y="250"/>
<rect fill="#F8CBAD" height="30" stroke="black" stroke-width="2" width="50" x="430" y="430"/>
<rect fill="#D9D9D9" height="30" stroke="black" stroke-width="2" width="50" x="480" y="430"/>
<rect fill="#D9D9D9" height="30" stroke="black" stroke-width="2" width="50" x="430" y="790"/>
<rect fill="#FFC000" height="30" stroke="black" stroke-width="2" width="50" x="430" y="970"/>
<rect fill="#FFC000" height="30" stroke="black" stroke-width="2" width="50" x="310" y="250"/>
<rect fill="#F8CBAD" height="30" stroke="black" stroke-width="2" width="50" x="310" y="340"/>
<rect fill="#D9D9D9" height="30" stroke="black" stroke-width="2" width="50" x="360" y="340"/>
<rect fill="#F8CBAD" height="30" stroke="black" stroke-width="2" width="50" x="310" y="430"/>
<rect fill="#D9D9D9" height="30" stroke="black" stroke-width="2" width="50" x="360" y="430"/>
<rect fill="#D9D9D9" height="30" stroke="black" stroke-width="2" width="50" x="310" y="880"/>
<rect fill="#FFC000" height="30" stroke="black" stroke-width="2" width="50" x="310" y="970"/>
<rect fill="#FFC000" height="30" stroke="black" stroke-width="2" width="50" x="190" y="250"/>
<rect fill="#F8CBAD" height="30" stroke="black" stroke-width="2" width="50" x="190" y="520"/>
<rect fill="#D9D9D9" height="30" stroke="black" stroke-width="2" width="50" x="240" y="520"/>
<rect fill="#D9D9D9" height="30" stroke="black" stroke-width="2" width="50" x="190" y="790"/>
<rect fill="#FF99CC" height="30" stroke="black" stroke-width="2" width="50" x="190" y="970"/>
<rect fill="#FFC000" height="30" stroke="black" stroke-width="2" width="50" x="120" y="250"/>
<rect fill="#FFC000" height="30" stroke="black" stroke-width="2" width="50" x="120" y="970"/>
</svg>