<svg viewBox="0 0 3590 1000" xmlns="http://www.w3.org/2000/svg">
<rect fill="white" height="100%" width="100%" x="0" y="0"/>
<rect dominant-baseline="middle" fill="blue" height="30" stroke="black" stroke-width="2" text-anchor="middle" width="50" x="20" y="100"/>
<rect dominant-baseline="middle" fill="blue" height="30" stroke="black" stroke-width="2" text-anchor="middle" width="50" x="90" y="100"/>
<rect dominant-baseline="middle" fill="blue" height="30" stroke="black" stroke-width="2" text-anchor="middle" width="50" x="210" y="100"/>
<rect dominant-baseline="middle" fill="blue" height="30" stroke="black" stroke-width="2" text-anchor="middle" width="50" x="330" y="100"/>
<rect dominant-baseline="middle" fill="blue" height="30" stroke="black" stroke-width="2" text-anchor="middle" width="50" x="450" y="100"/>
<rect dominant-baseline="middle" fill="blue" height="30" stroke="black" stroke-width="2" text-anchor="middle" width="50" x="570" y="100"/>
<rect dominant-baseline="middle" fill="blue" height="30" stroke="black" stroke-width="2" text-anchor="middle" width="50" x="690" y="100"/>
<rect dominant-baseline="middle" fill="blue" height="30" stroke="black" stroke-width="2" text-anchor="middle" width="50" x="810" y="100"/>
<rect dominant-baseline="middle" fill="blue" height="30" stroke="black" stroke-width="2" text-anchor="middle" width="50" x="930" y="100"/>
<rect dominant-baseline="middle" fill="blue" height="30" stroke="black" stroke-width="2" text-anchor="middle" width="50" x="1050" y="100"/>
<rect dominant-baseline="middle" fill="blue" height="30" stroke="black" stroke-width="2" text-anchor="middle" width="50" x="1170" y="100"/>
<rect dominant-baseline="middle" fill="blue" height="30" stroke="black" stroke-width="2" text-anchor="middle" width="50" x="1290" y="100"/>
<rect dominant-baseline="middle" fill="blue" height="30" stroke="black" stroke-width="2" text-anchor="middle" width="50" x="1410" y="100"/>
<rect dominant-baseline="middle" fill="blue" height="30" stroke="black" stroke-width="2" text-anchor="middle" width="50" x="1530" y="100"/>
<rect dominant-baseline="middle" fill="blue" height="30" stroke="black" stroke-width="2" text-anchor="middle" width="50" x="1650" y="100"/>
<rect dominant-baseline="middle" fill="blue" height="30" stroke="black" stroke-width="2" text-anchor="middle" width="50" x="1770" y="100"/>
<rect dominant-baseline="middle" fill="blue" height="30" stroke="black" stroke-width="2" text-anchor="middle" width="50" x="1890" y="100"/>
<rect dominant-baseline="middle" fill="blue" height="30" stroke="black" stroke-width="2" text-anchor="middle" width="50" x="2010" y="100"/>
<rect dominant-baseline="middle" fill="blue" height="30" stroke="black" stroke-width="2" text-anchor="middle" width="50" x="2130" y="100"/>
<rect dominant-baseline="middle" fill="blue" height="30" stroke="black" stroke-width="2" text-anchor="middle" width="50" x="2250" y="100"/>
<rect dominant-baseline="middle" fill="blue" height="30" stroke="black" stroke-width="2" text-anchor="middle" width="50" x="2370" y="100"/>
<rect dominant-baseline="middle" fill="blue" height="30" stroke="black" stroke-width="2" text-anchor="middle" width="50" x="2490" y="100"/>
<rect dominant-baseline="middle" fill="blue" height="30" stroke="black" stroke-width="2" text-anchor="middle" width="50" x="2610" y="100"/>
<rect dominant-baseline="middle" fill="blue" height="30" stroke="black" stroke-width="2" text-anchor="middle" width="50" x="2730" y="100"/>
<rect dominant-baseline="middle" fill="blue" height="30" stroke="black" stroke-width="2" text-anchor="middle" width="50" x="2850" y="100"/>
<rect dominant-baseline="middle" fill="blue" height="30" stroke="black" stroke-width="2" text-anchor="middle" width="50" x="2970" y="100"/>
<rect dominant-baseline="middle" fill="blue" height="30" stroke="black" stroke-width="2" text-anchor="middle" width="50" x="3040" y="100"/>
<rect dominant-baseline="middle" fill="blue" height="30" stroke="black" stroke-width="2" text-anchor="middle" width="50" x="3160" y="100"/>
<rect dominant-baseline="middle" fill="blue" height="30" stroke="black" stroke-width="2" text-anchor="middle" width="50" x="3280" y="100"/>
<rect dominant-baseline="middle" fill="blue" height="30" stroke="black" stroke-width="2" text-anchor="middle" width="50" x="3400" y="100"/>
<rect dominant-baseline="middle" fill="blue" height="30" stroke="black" stroke-width="2" text-anchor="middle" width="50" x="3520" y="100"/>
<text dominant-baseline="middle" font-family="Arial" font-size="10" text-anchor="middle" x="50" y="50">
XNR2
DOUT
</text>
</svg>