<svg viewBox="0 0 3620 500" xmlns="http://www.w3.org/2000/svg">
<rect fill="white" height="100%" width="100%" x="0" y="0"/>
<rect fill="white" height="470" stroke="black" stroke-width="1" width="3590" x="20" y="20"/>
<rect dominant-baseline="middle" fill="#FFC000" height="30" stroke="black" stroke-width="2" text-anchor="middle" width="50" x="3615" y="105"/>
<rect dominant-baseline="middle" fill="#A9D08E" height="30" stroke="black" stroke-width="2" text-anchor="middle" width="50" x="3545" y="105"/>
<rect dominant-baseline="middle" fill="#FFC000" height="30" stroke="black" stroke-width="2" text-anchor="middle" width="50" x="3595" y="105"/>
<rect dominant-baseline="middle" fill="#D9D9D9" height="30" stroke="black" stroke-width="2" text-anchor="middle" width="50" x="3545" y="155"/>
<rect dominant-baseline="middle" fill="#FFC000" height="30" stroke="black" stroke-width="2" text-anchor="middle" width="50" x="3595" y="155"/>
<rect dominant-baseline="middle" fill="#E2EFDA" height="30" stroke="black" stroke-width="2" text-anchor="middle" width="50" x="3425" y="105"/>
<rect dominant-baseline="middle" fill="#FFC000" height="30" stroke="black" stroke-width="2" text-anchor="middle" width="50" x="3475" y="105"/>
<rect dominant-baseline="middle" fill="#D9D9D9" height="30" stroke="black" stroke-width="2" text-anchor="middle" width="50" x="3425" y="155"/>
<rect dominant-baseline="middle" fill="#FF99CC" height="30" stroke="black" stroke-width="2" text-anchor="middle" width="50" x="3425" y="205"/>
<rect dominant-baseline="middle" fill="#A9D08E" height="30" stroke="black" stroke-width="2" text-anchor="middle" width="50" x="3305" y="105"/>
<rect dominant-baseline="middle" fill="#FFC000" height="30" stroke="black" stroke-width="2" text-anchor="middle" width="50" x="3355" y="105"/>
<rect dominant-baseline="middle" fill="#D9D9D9" height="30" stroke="black" stroke-width="2" text-anchor="middle" width="50" x="3305" y="155"/>
<rect dominant-baseline="middle" fill="#DDEBF7" height="30" stroke="black" stroke-width="2" text-anchor="middle" width="50" x="3355" y="155"/>
<rect dominant-baseline="middle" fill="#D9D9D9" height="30" stroke="black" stroke-width="2" text-anchor="middle" width="50" x="3305" y="205"/>
<rect dominant-baseline="middle" fill="#FF99CC" height="30" stroke="black" stroke-width="2" text-anchor="middle" width="50" x="3355" y="205"/>
<rect dominant-baseline="middle" fill="#E2EFDA" height="30" stroke="black" stroke-width="2" text-anchor="middle" width="50" x="3185" y="105"/>
<rect dominant-baseline="middle" fill="#FFC000" height="30" stroke="black" stroke-width="2" text-anchor="middle" width="50" x="3235" y="105"/>
<rect dominant-baseline="middle" fill="#D9D9D9" height="30" stroke="black" stroke-width="2" text-anchor="middle" width="50" x="3185" y="255"/>
<rect dominant-baseline="middle" fill="#FFC000" height="30" stroke="black" stroke-width="2" text-anchor="middle" width="50" x="3235" y="255"/>
<rect dominant-baseline="middle" fill="#A9D08E" height="30" stroke="black" stroke-width="2" text-anchor="middle" width="50" x="3065" y="105"/>
<rect dominant-baseline="middle" fill="#FF99CC" height="30" stroke="black" stroke-width="2" text-anchor="middle" width="50" x="3115" y="105"/>
<rect dominant-baseline="middle" fill="#F8CBAD" height="30" stroke="black" stroke-width="2" text-anchor="middle" width="50" x="3065" y="155"/>
<rect dominant-baseline="middle" fill="#D9D9D9" height="30" stroke="black" stroke-width="2" text-anchor="middle" width="50" x="3115" y="155"/>
<rect dominant-baseline="middle" fill="#D9D9D9" height="30" stroke="black" stroke-width="2" text-anchor="middle" width="50" x="3065" y="205"/>
<rect dominant-baseline="middle" fill="#FFC000" height="30" stroke="black" stroke-width="2" text-anchor="middle" width="50" x="3065" y="305"/>
<rect dominant-baseline="middle" fill="#E2EFDA" height="30" stroke="black" stroke-width="2" text-anchor="middle" width="50" x="2945" y="105"/>
<rect dominant-baseline="middle" fill="#FFC000" height="30" stroke="black" stroke-width="2" text-anchor="middle" width="50" x="2995" y="105"/>
<rect dominant-baseline="middle" fill="#F8CBAD" height="30" stroke="black" stroke-width="2" text-anchor="middle" width="50" x="2945" y="155"/>
<rect dominant-baseline="middle" fill="#D9D9D9" height="30" stroke="black" stroke-width="2" text-anchor="middle" width="50" x="2945" y="255"/>
<rect dominant-baseline="middle" fill="#FFC000" height="30" stroke="black" stroke-width="2" text-anchor="middle" width="50" x="2995" y="255"/>
<rect dominant-baseline="middle" fill="#A9D08E" height="30" stroke="black" stroke-width="2" text-anchor="middle" width="50" x="2825" y="105"/>
<rect dominant-baseline="middle" fill="#FF99CC" height="30" stroke="black" stroke-width="2" text-anchor="middle" width="50" x="2875" y="105"/>
<rect dominant-baseline="middle" fill="#D9D9D9" height="30" stroke="black" stroke-width="2" text-anchor="middle" width="50" x="2825" y="155"/>
<rect dominant-baseline="middle" fill="#D9D9D9" height="30" stroke="black" stroke-width="2" text-anchor="middle" width="50" x="2825" y="205"/>
<rect dominant-baseline="middle" fill="#F8CBAD" height="30" stroke="black" stroke-width="2" text-anchor="middle" width="50" x="2825" y="255"/>
<rect dominant-baseline="middle" fill="#FFC000" height="30" stroke="black" stroke-width="2" text-anchor="middle" width="50" x="2825" y="305"/>
<rect dominant-baseline="middle" fill="#E2EFDA" height="30" stroke="black" stroke-width="2" text-anchor="middle" width="50" x="2705" y="105"/>
<rect dominant-baseline="middle" fill="#FFC000" height="30" stroke="black" stroke-width="2" text-anchor="middle" width="50" x="2755" y="105"/>
<rect dominant-baseline="middle" fill="#D9D9D9" height="30" stroke="black" stroke-width="2" text-anchor="middle" width="50" x="2705" y="305"/>
<rect dominant-baseline="middle" fill="#FFC000" height="30" stroke="black" stroke-width="2" text-anchor="middle" width="50" x="2755" y="305"/>
<rect dominant-baseline="middle" fill="#A9D08E" height="30" stroke="black" stroke-width="2" text-anchor="middle" width="50" x="2585" y="105"/>
<rect dominant-baseline="middle" fill="#FF99CC" height="30" stroke="black" stroke-width="2" text-anchor="middle" width="50" x="2635" y="105"/>
<rect dominant-baseline="middle" fill="#00FFFF" height="30" stroke="black" stroke-width="2" text-anchor="middle" width="50" x="2585" y="255"/>
<rect dominant-baseline="middle" fill="#FFC000" height="30" stroke="black" stroke-width="2" text-anchor="middle" width="50" x="2585" y="355"/>
<rect dominant-baseline="middle" fill="#E2EFDA" height="30" stroke="black" stroke-width="2" text-anchor="middle" width="50" x="2465" y="105"/>
<rect dominant-baseline="middle" fill="#FFC000" height="30" stroke="black" stroke-width="2" text-anchor="middle" width="50" x="2515" y="105"/>
<rect dominant-baseline="middle" fill="#F8CBAD" height="30" stroke="black" stroke-width="2" text-anchor="middle" width="50" x="2465" y="155"/>
<rect dominant-baseline="middle" fill="#D9D9D9" height="30" stroke="black" stroke-width="2" text-anchor="middle" width="50" x="2515" y="155"/>
<rect dominant-baseline="middle" fill="#D9D9D9" height="30" stroke="black" stroke-width="2" text-anchor="middle" width="50" x="2465" y="305"/>
<rect dominant-baseline="middle" fill="#FFC000" height="30" stroke="black" stroke-width="2" text-anchor="middle" width="50" x="2515" y="305"/>
<rect dominant-baseline="middle" fill="#A9D08E" height="30" stroke="black" stroke-width="2" text-anchor="middle" width="50" x="2345" y="105"/>
<rect dominant-baseline="middle" fill="#FF99CC" height="30" stroke="black" stroke-width="2" text-anchor="middle" width="50" x="2395" y="105"/>
<rect dominant-baseline="middle" fill="#D9D9D9" height="30" stroke="black" stroke-width="2" text-anchor="middle" width="50" x="2345" y="155"/>
<rect dominant-baseline="middle" fill="#D9D9D9" height="30" stroke="black" stroke-width="2" text-anchor="middle" width="50" x="2345" y="255"/>
<rect dominant-baseline="middle" fill="#F8CBAD" height="30" stroke="black" stroke-width="2" text-anchor="middle" width="50" x="2345" y="305"/>
<rect dominant-baseline="middle" fill="#FFC000" height="30" stroke="black" stroke-width="2" text-anchor="middle" width="50" x="2345" y="355"/>
<rect dominant-baseline="middle" fill="#E2EFDA" height="30" stroke="black" stroke-width="2" text-anchor="middle" width="50" x="2225" y="105"/>
<rect dominant-baseline="middle" fill="#FFC000" height="30" stroke="black" stroke-width="2" text-anchor="middle" width="50" x="2275" y="105"/>
<rect dominant-baseline="middle" fill="#D9D9D9" height="30" stroke="black" stroke-width="2" text-anchor="middle" width="50" x="2225" y="305"/>
<rect dominant-baseline="middle" fill="#FF99CC" height="30" stroke="black" stroke-width="2" text-anchor="middle" width="50" x="2225" y="355"/>
<rect dominant-baseline="middle" fill="#A9D08E" height="30" stroke="black" stroke-width="2" text-anchor="middle" width="50" x="2105" y="105"/>
<rect dominant-baseline="middle" fill="#FF99CC" height="30" stroke="black" stroke-width="2" text-anchor="middle" width="50" x="2155" y="105"/>
<rect dominant-baseline="middle" fill="#00FFFF" height="30" stroke="black" stroke-width="2" text-anchor="middle" width="50" x="2105" y="305"/>
<rect dominant-baseline="middle" fill="#FFC000" height="30" stroke="black" stroke-width="2" text-anchor="middle" width="50" x="2105" y="355"/>
<rect dominant-baseline="middle" fill="#E2EFDA" height="30" stroke="black" stroke-width="2" text-anchor="middle" width="50" x="1985" y="105"/>
<rect dominant-baseline="middle" fill="#FFC000" height="30" stroke="black" stroke-width="2" text-anchor="middle" width="50" x="2035" y="105"/>
<rect dominant-baseline="middle" fill="#F8CBAD" height="30" stroke="black" stroke-width="2" text-anchor="middle" width="50" x="1985" y="155"/>
<rect dominant-baseline="middle" fill="#D9D9D9" height="30" stroke="black" stroke-width="2" text-anchor="middle" width="50" x="2035" y="155"/>
<rect dominant-baseline="middle" fill="#F8CBAD" height="30" stroke="black" stroke-width="2" text-anchor="middle" width="50" x="1985" y="205"/>
<rect dominant-baseline="middle" fill="#D9D9D9" height="30" stroke="black" stroke-width="2" text-anchor="middle" width="50" x="1985" y="305"/>
<rect dominant-baseline="middle" fill="#FF99CC" height="30" stroke="black" stroke-width="2" text-anchor="middle" width="50" x="1985" y="355"/>
<rect dominant-baseline="middle" fill="#A9D08E" height="30" stroke="black" stroke-width="2" text-anchor="middle" width="50" x="1865" y="105"/>
<rect dominant-baseline="middle" fill="#FF99CC" height="30" stroke="black" stroke-width="2" text-anchor="middle" width="50" x="1915" y="105"/>
<rect dominant-baseline="middle" fill="#D9D9D9" height="30" stroke="black" stroke-width="2" text-anchor="middle" width="50" x="1865" y="155"/>
<rect dominant-baseline="middle" fill="#D9D9D9" height="30" stroke="black" stroke-width="2" text-anchor="middle" width="50" x="1865" y="205"/>
<rect dominant-baseline="middle" fill="#D9D9D9" height="30" stroke="black" stroke-width="2" text-anchor="middle" width="50" x="1865" y="255"/>
<rect dominant-baseline="middle" fill="#DDEBF7" height="30" stroke="black" stroke-width="2" text-anchor="middle" width="50" x="1865" y="305"/>
<rect dominant-baseline="middle" fill="#F8CBAD" height="30" stroke="black" stroke-width="2" text-anchor="middle" width="50" x="1865" y="355"/>
<rect dominant-baseline="middle" fill="#FF99CC" height="30" stroke="black" stroke-width="2" text-anchor="middle" width="50" x="1915" y="355"/>
<rect dominant-baseline="middle" fill="#E2EFDA" height="30" stroke="black" stroke-width="2" text-anchor="middle" width="50" x="1745" y="105"/>
<rect dominant-baseline="middle" fill="#FFC000" height="30" stroke="black" stroke-width="2" text-anchor="middle" width="50" x="1795" y="105"/>
<rect dominant-baseline="middle" fill="#D9D9D9" height="30" stroke="black" stroke-width="2" text-anchor="middle" width="50" x="1745" y="355"/>
<rect dominant-baseline="middle" fill="#FF99CC" height="30" stroke="black" stroke-width="2" text-anchor="middle" width="50" x="1745" y="405"/>
<rect dominant-baseline="middle" fill="#A9D08E" height="30" stroke="black" stroke-width="2" text-anchor="middle" width="50" x="1625" y="105"/>
<rect dominant-baseline="middle" fill="#FF99CC" height="30" stroke="black" stroke-width="2" text-anchor="middle" width="50" x="1675" y="105"/>
<rect dominant-baseline="middle" fill="#00FFFF" height="30" stroke="black" stroke-width="2" text-anchor="middle" width="50" x="1625" y="355"/>
<rect dominant-baseline="middle" fill="#FFC000" height="30" stroke="black" stroke-width="2" text-anchor="middle" width="50" x="1625" y="405"/>
<rect dominant-baseline="middle" fill="#E2EFDA" height="30" stroke="black" stroke-width="2" text-anchor="middle" width="50" x="1505" y="105"/>
<rect dominant-baseline="middle" fill="#FFC000" height="30" stroke="black" stroke-width="2" text-anchor="middle" width="50" x="1555" y="105"/>
<rect dominant-baseline="middle" fill="#F8CBAD" height="30" stroke="black" stroke-width="2" text-anchor="middle" width="50" x="1505" y="155"/>
<rect dominant-baseline="middle" fill="#D9D9D9" height="30" stroke="black" stroke-width="2" text-anchor="middle" width="50" x="1555" y="155"/>
<rect dominant-baseline="middle" fill="#DDEBF7" height="30" stroke="black" stroke-width="2" text-anchor="middle" width="50" x="1505" y="205"/>
<rect dominant-baseline="middle" fill="#D9D9D9" height="30" stroke="black" stroke-width="2" text-anchor="middle" width="50" x="1505" y="355"/>
<rect dominant-baseline="middle" fill="#FF99CC" height="30" stroke="black" stroke-width="2" text-anchor="middle" width="50" x="1505" y="405"/>
<rect dominant-baseline="middle" fill="#A9D08E" height="30" stroke="black" stroke-width="2" text-anchor="middle" width="50" x="1385" y="105"/>
<rect dominant-baseline="middle" fill="#FF99CC" height="30" stroke="black" stroke-width="2" text-anchor="middle" width="50" x="1435" y="105"/>
<rect dominant-baseline="middle" fill="#D9D9D9" height="30" stroke="black" stroke-width="2" text-anchor="middle" width="50" x="1385" y="155"/>
<rect dominant-baseline="middle" fill="#D9D9D9" height="30" stroke="black" stroke-width="2" text-anchor="middle" width="50" x="1385" y="305"/>
<rect dominant-baseline="middle" fill="#DDEBF7" height="30" stroke="black" stroke-width="2" text-anchor="middle" width="50" x="1385" y="355"/>
<rect dominant-baseline="middle" fill="#F8CBAD" height="30" stroke="black" stroke-width="2" text-anchor="middle" width="50" x="1385" y="405"/>
<rect dominant-baseline="middle" fill="#FFC000" height="30" stroke="black" stroke-width="2" text-anchor="middle" width="50" x="1435" y="405"/>
<rect dominant-baseline="middle" fill="#E2EFDA" height="30" stroke="black" stroke-width="2" text-anchor="middle" width="50" x="1265" y="105"/>
<rect dominant-baseline="middle" fill="#FFC000" height="30" stroke="black" stroke-width="2" text-anchor="middle" width="50" x="1315" y="105"/>
<rect dominant-baseline="middle" fill="#DDEBF7" height="30" stroke="black" stroke-width="2" text-anchor="middle" width="50" x="1265" y="155"/>
<rect dominant-baseline="middle" fill="#DDEBF7" height="30" stroke="black" stroke-width="2" text-anchor="middle" width="50" x="1315" y="155"/>
<rect dominant-baseline="middle" fill="#D9D9D9" height="30" stroke="black" stroke-width="2" text-anchor="middle" width="50" x="1265" y="405"/>
<rect dominant-baseline="middle" fill="#FFC000" height="30" stroke="black" stroke-width="2" text-anchor="middle" width="50" x="1265" y="455"/>
<rect dominant-baseline="middle" fill="#A9D08E" height="30" stroke="black" stroke-width="2" text-anchor="middle" width="50" x="1145" y="105"/>
<rect dominant-baseline="middle" fill="#FF99CC" height="30" stroke="black" stroke-width="2" text-anchor="middle" width="50" x="1195" y="105"/>
<rect dominant-baseline="middle" fill="#F8CBAD" height="30" stroke="black" stroke-width="2" text-anchor="middle" width="50" x="1145" y="155"/>
<rect dominant-baseline="middle" fill="#F8CBAD" height="30" stroke="black" stroke-width="2" text-anchor="middle" width="50" x="1195" y="155"/>
<rect dominant-baseline="middle" fill="#D9D9D9" height="30" stroke="black" stroke-width="2" text-anchor="middle" width="50" x="1145" y="405"/>
<rect dominant-baseline="middle" fill="#FF99CC" height="30" stroke="black" stroke-width="2" text-anchor="middle" width="50" x="1145" y="455"/>
<rect dominant-baseline="middle" fill="#E2EFDA" height="30" stroke="black" stroke-width="2" text-anchor="middle" width="50" x="1025" y="105"/>
<rect dominant-baseline="middle" fill="#FFC000" height="30" stroke="black" stroke-width="2" text-anchor="middle" width="50" x="1075" y="105"/>
<rect dominant-baseline="middle" fill="#F8CBAD" height="30" stroke="black" stroke-width="2" text-anchor="middle" width="50" x="1025" y="155"/>
<rect dominant-baseline="middle" fill="#D9D9D9" height="30" stroke="black" stroke-width="2" text-anchor="middle" width="50" x="1075" y="155"/>
<rect dominant-baseline="middle" fill="#D9D9D9" height="30" stroke="black" stroke-width="2" text-anchor="middle" width="50" x="1025" y="405"/>
<rect dominant-baseline="middle" fill="#FFC000" height="30" stroke="black" stroke-width="2" text-anchor="middle" width="50" x="1025" y="455"/>
<rect dominant-baseline="middle" fill="#FFC000" height="30" stroke="black" stroke-width="2" text-anchor="middle" width="50" x="905" y="105"/>
<rect dominant-baseline="middle" fill="#D9D9D9" height="30" stroke="black" stroke-width="2" text-anchor="middle" width="50" x="905" y="205"/>
<rect dominant-baseline="middle" fill="#F8CBAD" height="30" stroke="black" stroke-width="2" text-anchor="middle" width="50" x="955" y="205"/>
<rect dominant-baseline="middle" fill="#D9D9D9" height="30" stroke="black" stroke-width="2" text-anchor="middle" width="50" x="905" y="405"/>
<rect dominant-baseline="middle" fill="#FFC000" height="30" stroke="black" stroke-width="2" text-anchor="middle" width="50" x="905" y="455"/>
<rect dominant-baseline="middle" fill="#FFC000" height="30" stroke="black" stroke-width="2" text-anchor="middle" width="50" x="785" y="105"/>
<rect dominant-baseline="middle" fill="#F8CBAD" height="30" stroke="black" stroke-width="2" text-anchor="middle" width="50" x="785" y="155"/>
<rect dominant-baseline="middle" fill="#D9D9D9" height="30" stroke="black" stroke-width="2" text-anchor="middle" width="50" x="835" y="155"/>
<rect dominant-baseline="middle" fill="#F8CBAD" height="30" stroke="black" stroke-width="2" text-anchor="middle" width="50" x="785" y="205"/>
<rect dominant-baseline="middle" fill="#D9D9D9" height="30" stroke="black" stroke-width="2" text-anchor="middle" width="50" x="835" y="205"/>
<rect dominant-baseline="middle" fill="#D9D9D9" height="30" stroke="black" stroke-width="2" text-anchor="middle" width="50" x="785" y="355"/>
<rect dominant-baseline="middle" fill="#DDEBF7" height="30" stroke="black" stroke-width="2" text-anchor="middle" width="50" x="785" y="405"/>
<rect dominant-baseline="middle" fill="#FFC000" height="30" stroke="black" stroke-width="2" text-anchor="middle" width="50" x="785" y="455"/>
<rect dominant-baseline="middle" fill="#FFC000" height="30" stroke="black" stroke-width="2" text-anchor="middle" width="50" x="665" y="105"/>
<rect dominant-baseline="middle" fill="#FF99CC" height="30" stroke="black" stroke-width="2" text-anchor="middle" width="50" x="665" y="405"/>
<rect dominant-baseline="middle" fill="#D9D9D9" height="30" stroke="black" stroke-width="2" text-anchor="middle" width="50" x="665" y="455"/>
<rect dominant-baseline="middle" fill="#FFC000" height="30" stroke="black" stroke-width="2" text-anchor="middle" width="50" x="595" y="105"/>
<rect dominant-baseline="middle" fill="#F8CBAD" height="30" stroke="black" stroke-width="2" text-anchor="middle" width="50" x="595" y="155"/>
<rect dominant-baseline="middle" fill="#D9D9D9" height="30" stroke="black" stroke-width="2" text-anchor="middle" width="50" x="645" y="155"/>
<rect dominant-baseline="middle" fill="#D9D9D9" height="30" stroke="black" stroke-width="2" text-anchor="middle" width="50" x="595" y="405"/>
<rect dominant-baseline="middle" fill="#FF99CC" height="30" stroke="black" stroke-width="2" text-anchor="middle" width="50" x="595" y="505"/>
<rect dominant-baseline="middle" fill="#FFC000" height="30" stroke="black" stroke-width="2" text-anchor="middle" width="50" x="475" y="105"/>
<rect dominant-baseline="middle" fill="#F8CBAD" height="30" stroke="black" stroke-width="2" text-anchor="middle" width="50" x="475" y="205"/>
<rect dominant-baseline="middle" fill="#D9D9D9" height="30" stroke="black" stroke-width="2" text-anchor="middle" width="50" x="525" y="205"/>
<rect dominant-baseline="middle" fill="#D9D9D9" height="30" stroke="black" stroke-width="2" text-anchor="middle" width="50" x="475" y="405"/>
<rect dominant-baseline="middle" fill="#FFC000" height="30" stroke="black" stroke-width="2" text-anchor="middle" width="50" x="475" y="455"/>
<rect dominant-baseline="middle" fill="#FFC000" height="30" stroke="black" stroke-width="2" text-anchor="middle" width="50" x="355" y="105"/>
<rect dominant-baseline="middle" fill="#F8CBAD" height="30" stroke="black" stroke-width="2" text-anchor="middle" width="50" x="355" y="155"/>
<rect dominant-baseline="middle" fill="#D9D9D9" height="30" stroke="black" stroke-width="2" text-anchor="middle" width="50" x="405" y="155"/>
<rect dominant-baseline="middle" fill="#F8CBAD" height="30" stroke="black" stroke-width="2" text-anchor="middle" width="50" x="355" y="205"/>
<rect dominant-baseline="middle" fill="#D9D9D9" height="30" stroke="black" stroke-width="2" text-anchor="middle" width="50" x="405" y="205"/>
<rect dominant-baseline="middle" fill="#D9D9D9" height="30" stroke="black" stroke-width="2" text-anchor="middle" width="50" x="355" y="455"/>
<rect dominant-baseline="middle" fill="#FFC000" height="30" stroke="black" stroke-width="2" text-anchor="middle" width="50" x="405" y="455"/>
<rect dominant-baseline="middle" fill="#FFC000" height="30" stroke="black" stroke-width="2" text-anchor="middle" width="50" x="235" y="105"/>
<rect dominant-baseline="middle" fill="#F8CBAD" height="30" stroke="black" stroke-width="2" text-anchor="middle" width="50" x="235" y="255"/>
<rect dominant-baseline="middle" fill="#D9D9D9" height="30" stroke="black" stroke-width="2" text-anchor="middle" width="50" x="285" y="255"/>
<rect dominant-baseline="middle" fill="#D9D9D9" height="30" stroke="black" stroke-width="2" text-anchor="middle" width="50" x="235" y="405"/>
<rect dominant-baseline="middle" fill="#FF99CC" height="30" stroke="black" stroke-width="2" text-anchor="middle" width="50" x="235" y="505"/>
<rect dominant-baseline="middle" fill="#FFC000" height="30" stroke="black" stroke-width="2" text-anchor="middle" width="50" x="115" y="105"/>
<rect dominant-baseline="middle" fill="#FFC000" height="30" stroke="black" stroke-width="2" text-anchor="middle" width="50" x="115" y="455"/>
</svg>