<svg viewBox="0 0 9416 1292" xmlns="http://www.w3.org/2000/svg">
<rect fill="white" height="100%" width="100%" x="0" y="0"/>
<rect fill="black" height="1092" stroke="none" width="9216" x="100" y="100"/>
<rect fill="white" height="156" stroke="none" width="1632" x="532" y="724"/>
<rect fill="white" height="156" stroke="none" width="1632" x="2980" y="724"/>
<rect fill="white" height="156" stroke="none" width="2160" x="5428" y="724"/>
<rect fill="white" height="156" stroke="none" width="1056" x="8260" y="724"/>
<rect fill="white" height="156" stroke="none" width="1632" x="532" y="568"/>
<rect fill="white" height="156" stroke="none" width="1632" x="2980" y="568"/>
<rect fill="white" height="156" stroke="none" width="2160" x="5428" y="568"/>
<rect fill="white" height="156" stroke="none" width="1056" x="8260" y="568"/>
<rect fill="white" height="156" stroke="none" width="9216" x="100" y="412"/>
<rect fill="white" height="156" stroke="none" width="9216" x="100" y="256"/>
<rect fill="white" height="156" stroke="none" width="9216" x="100" y="100"/>
<rect fill="none" height="1092" stroke="black" stroke-width="1" width="9216" x="100" y="100"/>
<rect fill="#A9D08E" height="156" opacity="0.8" stroke="black" stroke-width="1" width="240" x="244" y="412"/>
<text dominant-baseline="middle" font-family="Arial" font-size="20" text-anchor="middle" x="364" y="490">
U1_nh1_0
</text>
<rect fill="#E2EFDA" height="156" opacity="0.8" stroke="black" stroke-width="1" width="240" x="532" y="724"/>
<text dominant-baseline="middle" font-family="Arial" font-size="20" text-anchor="middle" x="652" y="802">
U1_np2_1
</text>
<rect fill="#A9D08E" height="156" opacity="0.8" stroke="black" stroke-width="1" width="240" x="820" y="568"/>
<text dominant-baseline="middle" font-family="Arial" font-size="20" text-anchor="middle" x="940" y="646">
U1_nh3_2
</text>
<rect fill="#E2EFDA" height="156" opacity="0.8" stroke="black" stroke-width="1" width="240" x="1060" y="724"/>
<text dominant-baseline="middle" font-family="Arial" font-size="20" text-anchor="middle" x="1180" y="802">
U1_np4_3
</text>
<rect fill="#A9D08E" height="156" opacity="0.8" stroke="black" stroke-width="1" width="240" x="1300" y="724"/>
<text dominant-baseline="middle" font-family="Arial" font-size="20" text-anchor="middle" x="1420" y="802">
U1_nh5_4
</text>
<rect fill="#E2EFDA" height="156" opacity="0.8" stroke="black" stroke-width="1" width="240" x="1540" y="724"/>
<text dominant-baseline="middle" font-family="Arial" font-size="20" text-anchor="middle" x="1660" y="802">
U1_np6_5
</text>
<rect fill="#A9D08E" height="156" opacity="0.8" stroke="black" stroke-width="1" width="240" x="1924" y="568"/>
<text dominant-baseline="middle" font-family="Arial" font-size="20" text-anchor="middle" x="2044" y="646">
U1_nh7_6
</text>
<rect fill="#E2EFDA" height="156" opacity="0.8" stroke="black" stroke-width="1" width="240" x="2452" y="412"/>
<text dominant-baseline="middle" font-family="Arial" font-size="20" text-anchor="middle" x="2572" y="490">
U1_np8_7
</text>
<rect fill="#A9D08E" height="156" opacity="0.8" stroke="black" stroke-width="1" width="240" x="2740" y="412"/>
<text dominant-baseline="middle" font-family="Arial" font-size="20" text-anchor="middle" x="2860" y="490">
U1_nh9_8
</text>
<rect fill="#E2EFDA" height="156" opacity="0.8" stroke="black" stroke-width="1" width="240" x="2980" y="568"/>
<text dominant-baseline="middle" font-family="Arial" font-size="20" text-anchor="middle" x="3100" y="646">
U1_np10_9
</text>
<rect fill="#A9D08E" height="156" opacity="0.8" stroke="black" stroke-width="1" width="240" x="3220" y="568"/>
<text dominant-baseline="middle" font-family="Arial" font-size="20" text-anchor="middle" x="3340" y="646">
U1_nh11_10
</text>
<rect fill="#E2EFDA" height="156" opacity="0.8" stroke="black" stroke-width="1" width="240" x="3364" y="724"/>
<text dominant-baseline="middle" font-family="Arial" font-size="20" text-anchor="middle" x="3484" y="802">
U1_np12_11
</text>
<rect fill="#A9D08E" height="156" opacity="0.8" stroke="black" stroke-width="1" width="240" x="3604" y="568"/>
<text dominant-baseline="middle" font-family="Arial" font-size="20" text-anchor="middle" x="3724" y="646">
U1_nh13_12
</text>
<rect fill="#E2EFDA" height="156" opacity="0.8" stroke="black" stroke-width="1" width="240" x="4132" y="724"/>
<text dominant-baseline="middle" font-family="Arial" font-size="20" text-anchor="middle" x="4252" y="802">
U1_np14_13
</text>
<rect fill="#A9D08E" height="156" opacity="0.8" stroke="black" stroke-width="1" width="240" x="4372" y="724"/>
<text dominant-baseline="middle" font-family="Arial" font-size="20" text-anchor="middle" x="4492" y="802">
U1_nh15_14
</text>
<rect fill="#E2EFDA" height="156" opacity="0.8" stroke="black" stroke-width="1" width="240" x="4660" y="412"/>
<text dominant-baseline="middle" font-family="Arial" font-size="20" text-anchor="middle" x="4780" y="490">
U1_np16_15
</text>
<rect fill="#A9D08E" height="156" opacity="0.8" stroke="black" stroke-width="1" width="240" x="5428" y="568"/>
<text dominant-baseline="middle" font-family="Arial" font-size="20" text-anchor="middle" x="5548" y="646">
U1_nh17_16
</text>
<rect fill="#E2EFDA" height="156" opacity="0.8" stroke="black" stroke-width="1" width="240" x="5428" y="724"/>
<text dominant-baseline="middle" font-family="Arial" font-size="20" text-anchor="middle" x="5548" y="802">
U1_np18_17
</text>
<rect fill="#F8CBAD" height="156" opacity="0.8" stroke="black" stroke-width="1" width="144" x="5908" y="568"/>
<text dominant-baseline="middle" font-family="Arial" font-size="20" text-anchor="middle" x="5980" y="646">
U1_np19
</text>
<rect fill="#A9D08E" height="156" opacity="0.8" stroke="black" stroke-width="1" width="240" x="6052" y="568"/>
<text dominant-baseline="middle" font-family="Arial" font-size="20" text-anchor="middle" x="6172" y="646">
U1_nh20_19
</text>
<rect fill="#E2EFDA" height="156" opacity="0.8" stroke="black" stroke-width="1" width="240" x="6292" y="568"/>
<text dominant-baseline="middle" font-family="Arial" font-size="20" text-anchor="middle" x="6412" y="646">
U1_np21_20
</text>
<rect fill="#FFC000" height="156" opacity="0.8" stroke="black" stroke-width="1" width="288" x="6532" y="568"/>
<text dominant-baseline="middle" font-family="Arial" font-size="20" text-anchor="middle" x="6676" y="646">
U1_ng22_nq22
</text>
<rect fill="#FFC000" height="156" opacity="0.8" stroke="black" stroke-width="1" width="288" x="6868" y="724"/>
<text dominant-baseline="middle" font-family="Arial" font-size="20" text-anchor="middle" x="7012" y="802">
U1_ng23_nq23
</text>
<rect fill="#FF99CC" height="156" opacity="0.8" stroke="black" stroke-width="1" width="288" x="7300" y="724"/>
<text dominant-baseline="middle" font-family="Arial" font-size="20" text-anchor="middle" x="7444" y="802">
U1_q24
</text>
<rect fill="#FFC000" height="156" opacity="0.8" stroke="black" stroke-width="1" width="288" x="5668" y="724"/>
<text dominant-baseline="middle" font-family="Arial" font-size="20" text-anchor="middle" x="5812" y="802">
U1_ng18_nq18
</text>
<rect fill="#FFC000" height="156" opacity="0.8" stroke="black" stroke-width="1" width="288" x="6532" y="724"/>
<text dominant-baseline="middle" font-family="Arial" font-size="20" text-anchor="middle" x="6676" y="802">
U1_ng21_nq21
</text>
<rect fill="#D9D9D9" height="156" opacity="0.8" stroke="black" stroke-width="1" width="336" x="676" y="412"/>
<text dominant-baseline="middle" font-family="Arial" font-size="20" text-anchor="middle" x="844" y="490">
U2_h3_0
</text>
<rect fill="#F8CBAD" height="156" opacity="0.8" stroke="black" stroke-width="1" width="144" x="1060" y="412"/>
<text dominant-baseline="middle" font-family="Arial" font-size="20" text-anchor="middle" x="1132" y="490">
U2_p6_3
</text>
<rect fill="#D9D9D9" height="156" opacity="0.8" stroke="black" stroke-width="1" width="192" x="1540" y="412"/>
<text dominant-baseline="middle" font-family="Arial" font-size="20" text-anchor="middle" x="1636" y="490">
U2_h7_4
</text>
<rect fill="#F8CBAD" height="156" opacity="0.8" stroke="black" stroke-width="1" width="144" x="3460" y="412"/>
<text dominant-baseline="middle" font-family="Arial" font-size="20" text-anchor="middle" x="3532" y="490">
U2_p10_7
</text>
<rect fill="#D9D9D9" height="156" opacity="0.8" stroke="black" stroke-width="1" width="192" x="3268" y="412"/>
<text dominant-baseline="middle" font-family="Arial" font-size="20" text-anchor="middle" x="3364" y="490">
U2_h11_8
</text>
<rect fill="#F8CBAD" height="156" opacity="0.8" stroke="black" stroke-width="1" width="144" x="3460" y="568"/>
<text dominant-baseline="middle" font-family="Arial" font-size="20" text-anchor="middle" x="3532" y="646">
U2_p14_11
</text>
<rect fill="#D9D9D9" height="156" opacity="0.8" stroke="black" stroke-width="1" width="192" x="4132" y="568"/>
<text dominant-baseline="middle" font-family="Arial" font-size="20" text-anchor="middle" x="4228" y="646">
U2_h15_12
</text>
<rect fill="#F8CBAD" height="156" opacity="0.8" stroke="black" stroke-width="1" width="144" x="5476" y="412"/>
<text dominant-baseline="middle" font-family="Arial" font-size="20" text-anchor="middle" x="5548" y="490">
U2_p18_15
</text>
<rect fill="#D9D9D9" height="156" opacity="0.8" stroke="black" stroke-width="1" width="192" x="5668" y="568"/>
<text dominant-baseline="middle" font-family="Arial" font-size="20" text-anchor="middle" x="5764" y="646">
U2_g18_16
</text>
<rect fill="#F8CBAD" height="156" opacity="0.8" stroke="black" stroke-width="1" width="144" x="6148" y="412"/>
<text dominant-baseline="middle" font-family="Arial" font-size="20" text-anchor="middle" x="6220" y="490">
U2_p21_19
</text>
<rect fill="#D9D9D9" height="156" opacity="0.8" stroke="black" stroke-width="1" width="192" x="6340" y="412"/>
<text dominant-baseline="middle" font-family="Arial" font-size="20" text-anchor="middle" x="6436" y="490">
U2_g21_19
</text>
<rect fill="#F8CBAD" height="156" opacity="0.8" stroke="black" stroke-width="1" width="144" x="7012" y="568"/>
<text dominant-baseline="middle" font-family="Arial" font-size="20" text-anchor="middle" x="7084" y="646">
U2_q23_22
</text>
<rect fill="#D9D9D9" height="156" opacity="0.8" stroke="black" stroke-width="1" width="192" x="6820" y="568"/>
<text dominant-baseline="middle" font-family="Arial" font-size="20" text-anchor="middle" x="6916" y="646">
U2_g23_22
</text>
<rect fill="#D9D9D9" height="156" opacity="0.8" stroke="black" stroke-width="1" width="336" x="1204" y="412"/>
<text dominant-baseline="middle" font-family="Arial" font-size="20" text-anchor="middle" x="1372" y="490">
U3_nh7_0
</text>
<rect fill="#F8CBAD" height="156" opacity="0.8" stroke="black" stroke-width="1" width="144" x="3604" y="412"/>
<text dominant-baseline="middle" font-family="Arial" font-size="20" text-anchor="middle" x="3676" y="490">
U3_np14_7
</text>
<rect fill="#D9D9D9" height="156" opacity="0.8" stroke="black" stroke-width="1" width="192" x="3748" y="412"/>
<text dominant-baseline="middle" font-family="Arial" font-size="20" text-anchor="middle" x="3844" y="490">
U3_nh15_8
</text>
<rect fill="#F8CBAD" height="156" opacity="0.8" stroke="black" stroke-width="1" width="144" x="6004" y="412"/>
<text dominant-baseline="middle" font-family="Arial" font-size="20" text-anchor="middle" x="6076" y="490">
U3_np21_15
</text>
<rect fill="#D9D9D9" height="156" opacity="0.8" stroke="black" stroke-width="1" width="192" x="6196" y="256"/>
<text dominant-baseline="middle" font-family="Arial" font-size="20" text-anchor="middle" x="6292" y="334">
U3_ng21_16
</text>
<rect fill="#F8CBAD" height="156" opacity="0.8" stroke="black" stroke-width="1" width="144" x="6964" y="412"/>
<text dominant-baseline="middle" font-family="Arial" font-size="20" text-anchor="middle" x="7036" y="490">
U3_nq24_22
</text>
<rect fill="#A9D08E" height="156" opacity="0.8" stroke="black" stroke-width="1" width="240" x="7204" y="568"/>
<text dominant-baseline="middle" font-family="Arial" font-size="20" text-anchor="middle" x="7324" y="646">
U3_ng24_22
</text>
<rect fill="#D9D9D9" height="156" opacity="0.8" stroke="black" stroke-width="1" width="336" x="4036" y="412"/>
<text dominant-baseline="middle" font-family="Arial" font-size="20" text-anchor="middle" x="4204" y="490">
U4_h15_0
</text>
<rect fill="#F8CBAD" height="156" opacity="0.8" stroke="black" stroke-width="1" width="144" x="6820" y="412"/>
<text dominant-baseline="middle" font-family="Arial" font-size="20" text-anchor="middle" x="6892" y="490">
U4_p24_15
</text>
<rect fill="#D9D9D9" height="156" opacity="0.8" stroke="black" stroke-width="1" width="192" x="6868" y="256"/>
<text dominant-baseline="middle" font-family="Arial" font-size="20" text-anchor="middle" x="6964" y="334">
U4_g24_16
</text>
<rect fill="#FFC000" height="156" opacity="0.8" stroke="black" stroke-width="1" width="288" x="244" y="256"/>
<text dominant-baseline="middle" font-family="Arial" font-size="20" text-anchor="middle" x="388" y="334">
U1_ng0_s0
</text>
<rect fill="#FF99CC" height="156" opacity="0.8" stroke="black" stroke-width="1" width="288" x="532" y="568"/>
<text dominant-baseline="middle" font-family="Arial" font-size="20" text-anchor="middle" x="676" y="646">
U1_np1_q1
</text>
<rect fill="#FFC000" height="156" opacity="0.8" stroke="black" stroke-width="1" width="288" x="772" y="724"/>
<text dominant-baseline="middle" font-family="Arial" font-size="20" text-anchor="middle" x="916" y="802">
U1_ng2_nq2
</text>
<rect fill="#FF99CC" height="156" opacity="0.8" stroke="black" stroke-width="1" width="288" x="1060" y="568"/>
<text dominant-baseline="middle" font-family="Arial" font-size="20" text-anchor="middle" x="1204" y="646">
U1_np3_q3
</text>
<rect fill="#FFC000" height="156" opacity="0.8" stroke="black" stroke-width="1" width="288" x="1348" y="568"/>
<text dominant-baseline="middle" font-family="Arial" font-size="20" text-anchor="middle" x="1492" y="646">
U1_ng4_nq4
</text>
<rect fill="#FFC000" height="156" opacity="0.8" stroke="black" stroke-width="1" width="288" x="1636" y="568"/>
<text dominant-baseline="middle" font-family="Arial" font-size="20" text-anchor="middle" x="1780" y="646">
U1_ng5_nq5
</text>
<rect fill="#FFC000" height="156" opacity="0.8" stroke="black" stroke-width="1" width="288" x="1876" y="724"/>
<text dominant-baseline="middle" font-family="Arial" font-size="20" text-anchor="middle" x="2020" y="802">
U1_ng6_nq6
</text>
<rect fill="#FF99CC" height="156" opacity="0.8" stroke="black" stroke-width="1" width="288" x="2164" y="412"/>
<text dominant-baseline="middle" font-family="Arial" font-size="20" text-anchor="middle" x="2308" y="490">
U1_np7_q7
</text>
<rect fill="#FFC000" height="156" opacity="0.8" stroke="black" stroke-width="1" width="288" x="2356" y="256"/>
<text dominant-baseline="middle" font-family="Arial" font-size="20" text-anchor="middle" x="2500" y="334">
U1_ng8_nq8
</text>
<rect fill="#FF99CC" height="156" opacity="0.8" stroke="black" stroke-width="1" width="288" x="2644" y="256"/>
<text dominant-baseline="middle" font-family="Arial" font-size="20" text-anchor="middle" x="2788" y="334">
U1_np9_q9
</text>
<rect fill="#FFC000" height="156" opacity="0.8" stroke="black" stroke-width="1" width="288" x="2980" y="724"/>
<text dominant-baseline="middle" font-family="Arial" font-size="20" text-anchor="middle" x="3124" y="802">
U1_ng10_nq10
</text>
<rect fill="#FF99CC" height="156" opacity="0.8" stroke="black" stroke-width="1" width="288" x="2980" y="412"/>
<text dominant-baseline="middle" font-family="Arial" font-size="20" text-anchor="middle" x="3124" y="490">
U1_np11_q11
</text>
<rect fill="#FFC000" height="156" opacity="0.8" stroke="black" stroke-width="1" width="288" x="3604" y="724"/>
<text dominant-baseline="middle" font-family="Arial" font-size="20" text-anchor="middle" x="3748" y="802">
U1_ng12_nq12
</text>
<rect fill="#FF99CC" height="156" opacity="0.8" stroke="black" stroke-width="1" width="288" x="3844" y="568"/>
<text dominant-baseline="middle" font-family="Arial" font-size="20" text-anchor="middle" x="3988" y="646">
U1_np13_q13
</text>
<rect fill="#FFC000" height="156" opacity="0.8" stroke="black" stroke-width="1" width="288" x="4324" y="568"/>
<text dominant-baseline="middle" font-family="Arial" font-size="20" text-anchor="middle" x="4468" y="646">
U1_ng14_nq14
</text>
<rect fill="#FF99CC" height="156" opacity="0.8" stroke="black" stroke-width="1" width="288" x="4372" y="412"/>
<text dominant-baseline="middle" font-family="Arial" font-size="20" text-anchor="middle" x="4516" y="490">
U1_np15_q15
</text>
<rect fill="#FFC000" height="156" opacity="0.8" stroke="black" stroke-width="1" width="288" x="4900" y="412"/>
<text dominant-baseline="middle" font-family="Arial" font-size="20" text-anchor="middle" x="5044" y="490">
U1_ng16_nq16
</text>
<rect fill="#FF99CC" height="156" opacity="0.8" stroke="black" stroke-width="1" width="288" x="5188" y="412"/>
<text dominant-baseline="middle" font-family="Arial" font-size="20" text-anchor="middle" x="5332" y="490">
U1_np17_q17
</text>
<rect fill="#FFC000" height="156" opacity="0.8" stroke="black" stroke-width="1" width="288" x="5956" y="724"/>
<text dominant-baseline="middle" font-family="Arial" font-size="20" text-anchor="middle" x="6100" y="802">
U1_ng19_nq19
</text>
<rect fill="#FF99CC" height="156" opacity="0.8" stroke="black" stroke-width="1" width="288" x="6244" y="724"/>
<text dominant-baseline="middle" font-family="Arial" font-size="20" text-anchor="middle" x="6388" y="802">
U1_np20_q20
</text>
<rect fill="#FFC000" height="156" opacity="0.8" stroke="black" stroke-width="1" width="288" x="7636" y="412"/>
<text dominant-baseline="middle" font-family="Arial" font-size="20" text-anchor="middle" x="7780" y="490">
U1_ng25_nq25
</text>
<rect fill="#FFC000" height="156" opacity="0.8" stroke="black" stroke-width="1" width="288" x="7924" y="412"/>
<text dominant-baseline="middle" font-family="Arial" font-size="20" text-anchor="middle" x="8068" y="490">
U1_ng26_nq26
</text>
<rect fill="#FF99CC" height="156" opacity="0.8" stroke="black" stroke-width="1" width="288" x="8260" y="568"/>
<text dominant-baseline="middle" font-family="Arial" font-size="20" text-anchor="middle" x="8404" y="646">
U1_q27
</text>
<rect fill="#FFC000" height="156" opacity="0.8" stroke="black" stroke-width="1" width="288" x="8260" y="724"/>
<text dominant-baseline="middle" font-family="Arial" font-size="20" text-anchor="middle" x="8404" y="802">
U1_ng28_nq28
</text>
<rect fill="#FF99CC" height="156" opacity="0.8" stroke="black" stroke-width="1" width="288" x="8548" y="724"/>
<text dominant-baseline="middle" font-family="Arial" font-size="20" text-anchor="middle" x="8692" y="802">
U1_q29
</text>
<rect fill="#FFC000" height="156" opacity="0.8" stroke="black" stroke-width="1" width="288" x="8836" y="724"/>
<text dominant-baseline="middle" font-family="Arial" font-size="20" text-anchor="middle" x="8980" y="802">
U1_nq30
</text>
<rect fill="#F8CBAD" height="156" opacity="0.8" stroke="black" stroke-width="1" width="192" x="628" y="256"/>
<text dominant-baseline="middle" font-family="Arial" font-size="20" text-anchor="middle" x="724" y="334">
U2_ng1_0
</text>
<rect fill="#DDEBF7" height="156" opacity="0.8" stroke="black" stroke-width="1" width="96" x="6724" y="412"/>
<text dominant-baseline="middle" font-family="Arial" font-size="20" text-anchor="middle" x="6772" y="490">
U2_q22
</text>
<rect fill="#DDEBF7" height="156" opacity="0.8" stroke="black" stroke-width="1" width="96" x="6580" y="412"/>
<text dominant-baseline="middle" font-family="Arial" font-size="20" text-anchor="middle" x="6628" y="490">
U2_g22
</text>
<rect fill="#F8CBAD" height="156" opacity="0.8" stroke="black" stroke-width="1" width="144" x="8116" y="256"/>
<text dominant-baseline="middle" font-family="Arial" font-size="20" text-anchor="middle" x="8188" y="334">
U2_q26_25
</text>
<rect fill="#D9D9D9" height="156" opacity="0.8" stroke="black" stroke-width="1" width="192" x="7924" y="256"/>
<text dominant-baseline="middle" font-family="Arial" font-size="20" text-anchor="middle" x="8020" y="334">
U2_g26_25
</text>
<rect fill="#D9D9D9" height="156" opacity="0.8" stroke="black" stroke-width="1" width="192" x="820" y="256"/>
<text dominant-baseline="middle" font-family="Arial" font-size="20" text-anchor="middle" x="916" y="334">
U3_g2_0
</text>
<rect fill="#F8CBAD" height="156" opacity="0.8" stroke="black" stroke-width="1" width="192" x="1204" y="256"/>
<text dominant-baseline="middle" font-family="Arial" font-size="20" text-anchor="middle" x="1300" y="334">
U3_ng3_0
</text>
<rect fill="#F8CBAD" height="156" opacity="0.8" stroke="black" stroke-width="1" width="144" x="8644" y="412"/>
<text dominant-baseline="middle" font-family="Arial" font-size="20" text-anchor="middle" x="8716" y="490">
U3_nq27_25
</text>
<rect fill="#A9D08E" height="156" opacity="0.8" stroke="black" stroke-width="1" width="240" x="8212" y="412"/>
<text dominant-baseline="middle" font-family="Arial" font-size="20" text-anchor="middle" x="8332" y="490">
U3_ng27_25
</text>
<rect fill="#D9D9D9" height="156" opacity="0.8" stroke="black" stroke-width="1" width="240" x="1492" y="256"/>
<text dominant-baseline="middle" font-family="Arial" font-size="20" text-anchor="middle" x="1612" y="334">
U4_ng4_0
</text>
<rect fill="#F8CBAD" height="156" opacity="0.8" stroke="black" stroke-width="1" width="192" x="1972" y="412"/>
<text dominant-baseline="middle" font-family="Arial" font-size="20" text-anchor="middle" x="2068" y="490">
U4_ng7_0
</text>
<rect fill="#D9D9D9" height="156" opacity="0.8" stroke="black" stroke-width="1" width="240" x="1732" y="412"/>
<text dominant-baseline="middle" font-family="Arial" font-size="20" text-anchor="middle" x="1852" y="490">
U4_nh11_0
</text>
<rect fill="#F8CBAD" height="156" opacity="0.8" stroke="black" stroke-width="1" width="144" x="8788" y="412"/>
<text dominant-baseline="middle" font-family="Arial" font-size="20" text-anchor="middle" x="8860" y="490">
U4_q28_25
</text>
<rect fill="#D9D9D9" height="156" opacity="0.8" stroke="black" stroke-width="1" width="192" x="8452" y="412"/>
<text dominant-baseline="middle" font-family="Arial" font-size="20" text-anchor="middle" x="8548" y="490">
U4_g28_25
</text>
<rect fill="#D9D9D9" height="156" opacity="0.8" stroke="black" stroke-width="1" width="240" x="1732" y="256"/>
<text dominant-baseline="middle" font-family="Arial" font-size="20" text-anchor="middle" x="1852" y="334">
U5_ng5_0
</text>
<rect fill="#D9D9D9" height="156" opacity="0.8" stroke="black" stroke-width="1" width="192" x="2164" y="256"/>
<text dominant-baseline="middle" font-family="Arial" font-size="20" text-anchor="middle" x="2260" y="334">
U5_g8_0
</text>
<rect fill="#00FFFF" height="156" opacity="0.8" stroke="black" stroke-width="1" width="288" x="2932" y="256"/>
<text dominant-baseline="middle" font-family="Arial" font-size="20" text-anchor="middle" x="3076" y="334">
U5_ng9_0
</text>
<rect fill="#F8CBAD" height="156" opacity="0.8" stroke="black" stroke-width="1" width="144" x="3508" y="256"/>
<text dominant-baseline="middle" font-family="Arial" font-size="20" text-anchor="middle" x="3580" y="334">
U5_g11_0
</text>
<rect fill="#D9D9D9" height="156" opacity="0.8" stroke="black" stroke-width="1" width="192" x="3700" y="256"/>
<text dominant-baseline="middle" font-family="Arial" font-size="20" text-anchor="middle" x="3796" y="334">
U5_g12_0
</text>
<rect fill="#00FFFF" height="156" opacity="0.8" stroke="black" stroke-width="1" width="288" x="3940" y="256"/>
<text dominant-baseline="middle" font-family="Arial" font-size="20" text-anchor="middle" x="4084" y="334">
U5_ng13_0
</text>
<rect fill="#F8CBAD" height="156" opacity="0.8" stroke="black" stroke-width="1" width="192" x="4852" y="256"/>
<text dominant-baseline="middle" font-family="Arial" font-size="20" text-anchor="middle" x="4948" y="334">
U5_ng15_0
</text>
<rect fill="#D9D9D9" height="156" opacity="0.8" stroke="black" stroke-width="1" width="192" x="5668" y="256"/>
<text dominant-baseline="middle" font-family="Arial" font-size="20" text-anchor="middle" x="5764" y="334">
U5_ng18_0
</text>
<rect fill="#D9D9D9" height="156" opacity="0.8" stroke="black" stroke-width="1" width="240" x="6628" y="256"/>
<text dominant-baseline="middle" font-family="Arial" font-size="20" text-anchor="middle" x="6748" y="334">
U5_g21_0
</text>
<rect fill="#D9D9D9" height="156" opacity="0.8" stroke="black" stroke-width="1" width="336" x="7396" y="256"/>
<text dominant-baseline="middle" font-family="Arial" font-size="20" text-anchor="middle" x="7564" y="334">
U5_ng24_0
</text>
<rect fill="#F8CBAD" height="156" opacity="0.8" stroke="black" stroke-width="1" width="144" x="8980" y="568"/>
<text dominant-baseline="middle" font-family="Arial" font-size="20" text-anchor="middle" x="9052" y="646">
U5_nq29_25
</text>
<rect fill="#A9D08E" height="156" opacity="0.8" stroke="black" stroke-width="1" width="240" x="8740" y="568"/>
<text dominant-baseline="middle" font-family="Arial" font-size="20" text-anchor="middle" x="8860" y="646">
U5_ng29_25
</text>
<rect fill="#D9D9D9" height="156" opacity="0.8" stroke="black" stroke-width="1" width="192" x="1972" y="256"/>
<text dominant-baseline="middle" font-family="Arial" font-size="20" text-anchor="middle" x="2068" y="334">
U6_g6_0
</text>
<rect fill="#D9D9D9" height="156" opacity="0.8" stroke="black" stroke-width="1" width="192" x="3220" y="256"/>
<text dominant-baseline="middle" font-family="Arial" font-size="20" text-anchor="middle" x="3316" y="334">
U6_g10_0
</text>
<rect fill="#D9D9D9" height="156" opacity="0.8" stroke="black" stroke-width="1" width="192" x="4660" y="256"/>
<text dominant-baseline="middle" font-family="Arial" font-size="20" text-anchor="middle" x="4756" y="334">
U6_g14_0
</text>
<rect fill="#D9D9D9" height="156" opacity="0.8" stroke="black" stroke-width="1" width="192" x="5140" y="256"/>
<text dominant-baseline="middle" font-family="Arial" font-size="20" text-anchor="middle" x="5236" y="334">
U6_g16_0
</text>
<rect fill="#00FFFF" height="156" opacity="0.8" stroke="black" stroke-width="1" width="240" x="5428" y="256"/>
<text dominant-baseline="middle" font-family="Arial" font-size="20" text-anchor="middle" x="5548" y="334">
U6_g17_0
</text>
<rect fill="#D9D9D9" height="156" opacity="0.8" stroke="black" stroke-width="1" width="192" x="6004" y="256"/>
<text dominant-baseline="middle" font-family="Arial" font-size="20" text-anchor="middle" x="6100" y="334">
U6_g19_0
</text>
<rect fill="#00FFFF" height="156" opacity="0.8" stroke="black" stroke-width="1" width="240" x="6388" y="256"/>
<text dominant-baseline="middle" font-family="Arial" font-size="20" text-anchor="middle" x="6508" y="334">
U6_g20_0
</text>
<rect fill="#D9D9D9" height="156" opacity="0.8" stroke="black" stroke-width="1" width="192" x="7060" y="256"/>
<text dominant-baseline="middle" font-family="Arial" font-size="20" text-anchor="middle" x="7156" y="334">
U6_ng22_0
</text>
<rect fill="#D9D9D9" height="156" opacity="0.8" stroke="black" stroke-width="1" width="192" x="7204" y="412"/>
<text dominant-baseline="middle" font-family="Arial" font-size="20" text-anchor="middle" x="7300" y="490">
U6_ng23_0
</text>
<rect fill="#DDEBF7" height="156" opacity="0.8" stroke="black" stroke-width="1" width="96" x="8260" y="256"/>
<text dominant-baseline="middle" font-family="Arial" font-size="20" text-anchor="middle" x="8308" y="334">
U6_g24_0
</text>
<rect fill="#D9D9D9" height="156" opacity="0.8" stroke="black" stroke-width="1" width="192" x="7732" y="256"/>
<text dominant-baseline="middle" font-family="Arial" font-size="20" text-anchor="middle" x="7828" y="334">
U6_g25_0
</text>
<rect fill="#D9D9D9" height="156" opacity="0.8" stroke="black" stroke-width="1" width="192" x="8548" y="256"/>
<text dominant-baseline="middle" font-family="Arial" font-size="20" text-anchor="middle" x="8644" y="334">
U6_g27_0
</text>
<rect fill="#D9D9D9" height="156" opacity="0.8" stroke="black" stroke-width="1" width="192" x="8932" y="412"/>
<text dominant-baseline="middle" font-family="Arial" font-size="20" text-anchor="middle" x="9028" y="490">
U6_g29_0
</text>
<rect fill="#D9D9D9" height="156" opacity="0.8" stroke="black" stroke-width="1" width="192" x="8356" y="256"/>
<text dominant-baseline="middle" font-family="Arial" font-size="20" text-anchor="middle" x="8452" y="334">
U7_ng26_0
</text>
<rect fill="#D9D9D9" height="156" opacity="0.8" stroke="black" stroke-width="1" width="192" x="8788" y="256"/>
<text dominant-baseline="middle" font-family="Arial" font-size="20" text-anchor="middle" x="8884" y="334">
U7_ng28_0
</text>
<rect fill="#FF99CC" height="156" opacity="0.8" stroke="black" stroke-width="1" width="288" x="388" y="100"/>
<text dominant-baseline="middle" font-family="Arial" font-size="20" text-anchor="middle" x="532" y="178">
U8_s1
</text>
<rect fill="#FFC000" height="156" opacity="0.8" stroke="black" stroke-width="1" width="288" x="676" y="100"/>
<text dominant-baseline="middle" font-family="Arial" font-size="20" text-anchor="middle" x="820" y="178">
U8_s2
</text>
<rect fill="#FFC000" height="156" opacity="0.8" stroke="black" stroke-width="1" width="288" x="964" y="100"/>
<text dominant-baseline="middle" font-family="Arial" font-size="20" text-anchor="middle" x="1108" y="178">
U8_s3
</text>
<rect fill="#FFC000" height="156" opacity="0.8" stroke="black" stroke-width="1" width="288" x="1252" y="100"/>
<text dominant-baseline="middle" font-family="Arial" font-size="20" text-anchor="middle" x="1396" y="178">
U8_s4
</text>
<rect fill="#FFC000" height="156" opacity="0.8" stroke="black" stroke-width="1" width="288" x="1540" y="100"/>
<text dominant-baseline="middle" font-family="Arial" font-size="20" text-anchor="middle" x="1684" y="178">
U8_s5
</text>
<rect fill="#FFC000" height="156" opacity="0.8" stroke="black" stroke-width="1" width="288" x="1828" y="100"/>
<text dominant-baseline="middle" font-family="Arial" font-size="20" text-anchor="middle" x="1972" y="178">
U8_s6
</text>
<rect fill="#FFC000" height="156" opacity="0.8" stroke="black" stroke-width="1" width="288" x="2116" y="100"/>
<text dominant-baseline="middle" font-family="Arial" font-size="20" text-anchor="middle" x="2260" y="178">
U8_s7
</text>
<rect fill="#FFC000" height="156" opacity="0.8" stroke="black" stroke-width="1" width="288" x="2404" y="100"/>
<text dominant-baseline="middle" font-family="Arial" font-size="20" text-anchor="middle" x="2548" y="178">
U8_s8
</text>
<rect fill="#FFC000" height="156" opacity="0.8" stroke="black" stroke-width="1" width="288" x="2692" y="100"/>
<text dominant-baseline="middle" font-family="Arial" font-size="20" text-anchor="middle" x="2836" y="178">
U8_s9
</text>
<rect fill="#FFC000" height="156" opacity="0.8" stroke="black" stroke-width="1" width="288" x="2980" y="100"/>
<text dominant-baseline="middle" font-family="Arial" font-size="20" text-anchor="middle" x="3124" y="178">
U8_s10
</text>
<rect fill="#FFC000" height="156" opacity="0.8" stroke="black" stroke-width="1" width="288" x="3268" y="100"/>
<text dominant-baseline="middle" font-family="Arial" font-size="20" text-anchor="middle" x="3412" y="178">
U8_s11
</text>
<rect fill="#FF99CC" height="156" opacity="0.8" stroke="black" stroke-width="1" width="288" x="3556" y="100"/>
<text dominant-baseline="middle" font-family="Arial" font-size="20" text-anchor="middle" x="3700" y="178">
U8_s12
</text>
<rect fill="#FFC000" height="156" opacity="0.8" stroke="black" stroke-width="1" width="288" x="3844" y="100"/>
<text dominant-baseline="middle" font-family="Arial" font-size="20" text-anchor="middle" x="3988" y="178">
U8_s13
</text>
<rect fill="#FFC000" height="156" opacity="0.8" stroke="black" stroke-width="1" width="288" x="4132" y="100"/>
<text dominant-baseline="middle" font-family="Arial" font-size="20" text-anchor="middle" x="4276" y="178">
U8_s14
</text>
<rect fill="#FFC000" height="156" opacity="0.8" stroke="black" stroke-width="1" width="288" x="4708" y="100"/>
<text dominant-baseline="middle" font-family="Arial" font-size="20" text-anchor="middle" x="4852" y="178">
U8_s15
</text>
<rect fill="#FFC000" height="156" opacity="0.8" stroke="black" stroke-width="1" width="288" x="4996" y="100"/>
<text dominant-baseline="middle" font-family="Arial" font-size="20" text-anchor="middle" x="5140" y="178">
U8_s16
</text>
<rect fill="#FFC000" height="156" opacity="0.8" stroke="black" stroke-width="1" width="288" x="5284" y="100"/>
<text dominant-baseline="middle" font-family="Arial" font-size="20" text-anchor="middle" x="5428" y="178">
U8_s17
</text>
<rect fill="#FF99CC" height="156" opacity="0.8" stroke="black" stroke-width="1" width="288" x="5572" y="100"/>
<text dominant-baseline="middle" font-family="Arial" font-size="20" text-anchor="middle" x="5716" y="178">
U8_s18
</text>
<rect fill="#FFC000" height="156" opacity="0.8" stroke="black" stroke-width="1" width="288" x="5860" y="100"/>
<text dominant-baseline="middle" font-family="Arial" font-size="20" text-anchor="middle" x="6004" y="178">
U8_s19
</text>
<rect fill="#FFC000" height="156" opacity="0.8" stroke="black" stroke-width="1" width="288" x="6148" y="100"/>
<text dominant-baseline="middle" font-family="Arial" font-size="20" text-anchor="middle" x="6292" y="178">
U8_s20
</text>
<rect fill="#FF99CC" height="156" opacity="0.8" stroke="black" stroke-width="1" width="288" x="6436" y="100"/>
<text dominant-baseline="middle" font-family="Arial" font-size="20" text-anchor="middle" x="6580" y="178">
U8_s21
</text>
<rect fill="#FFC000" height="156" opacity="0.8" stroke="black" stroke-width="1" width="288" x="6724" y="100"/>
<text dominant-baseline="middle" font-family="Arial" font-size="20" text-anchor="middle" x="6868" y="178">
U8_s22
</text>
<rect fill="#FFC000" height="156" opacity="0.8" stroke="black" stroke-width="1" width="288" x="7012" y="100"/>
<text dominant-baseline="middle" font-family="Arial" font-size="20" text-anchor="middle" x="7156" y="178">
U8_s23
</text>
<rect fill="#FF99CC" height="156" opacity="0.8" stroke="black" stroke-width="1" width="288" x="7300" y="100"/>
<text dominant-baseline="middle" font-family="Arial" font-size="20" text-anchor="middle" x="7444" y="178">
U8_s24
</text>
<rect fill="#FFC000" height="156" opacity="0.8" stroke="black" stroke-width="1" width="288" x="7588" y="100"/>
<text dominant-baseline="middle" font-family="Arial" font-size="20" text-anchor="middle" x="7732" y="178">
U8_s25
</text>
<rect fill="#FF99CC" height="156" opacity="0.8" stroke="black" stroke-width="1" width="288" x="7876" y="100"/>
<text dominant-baseline="middle" font-family="Arial" font-size="20" text-anchor="middle" x="8020" y="178">
U8_s26
</text>
<rect fill="#FF99CC" height="156" opacity="0.8" stroke="black" stroke-width="1" width="288" x="8164" y="100"/>
<text dominant-baseline="middle" font-family="Arial" font-size="20" text-anchor="middle" x="8308" y="178">
U8_s27
</text>
<rect fill="#FF99CC" height="156" opacity="0.8" stroke="black" stroke-width="1" width="288" x="8452" y="100"/>
<text dominant-baseline="middle" font-family="Arial" font-size="20" text-anchor="middle" x="8596" y="178">
U8_s28
</text>
<rect fill="#FF99CC" height="156" opacity="0.8" stroke="black" stroke-width="1" width="288" x="8740" y="100"/>
<text dominant-baseline="middle" font-family="Arial" font-size="20" text-anchor="middle" x="8884" y="178">
U8_s29
</text>
<rect fill="#FF99CC" height="156" opacity="0.8" stroke="black" stroke-width="1" width="288" x="9028" y="100"/>
<text dominant-baseline="middle" font-family="Arial" font-size="20" text-anchor="middle" x="9172" y="178">
U8_s30
</text>
</svg>